<?xml version="1.0" standalone="no"?>
<!DOCTYPE svg PUBLIC "-//W3C//DTD SVG 20010904//EN"
 "http://www.w3.org/TR/2001/REC-SVG-20010904/DTD/svg10.dtd">
<svg version="1.0" xmlns="http://www.w3.org/2000/svg"
 width="50.000000pt" height="50.000000pt" viewBox="0 0 50.000000 50.000000"
 preserveAspectRatio="xMidYMid meet">

<g transform="translate(0.000000,50.000000) scale(0.100000,-0.100000)"
fill="#000000" stroke="none">
<path d="M0 324 l0 -176 62 -74 62 -74 188 0 188 0 0 188 0 187 -72 63 -73 62
-177 0 -178 0 0 -176z m402 109 l57 -48 -162 -3 -161 -3 -51 51 -50 50 155 0
155 0 57 -47z m-362 2 c0 -8 7 -15 15 -15 8 0 15 -7 15 -15 0 -8 7 -15 15 -15
8 0 15 -7 15 -15 0 -8 5 -15 10 -15 14 0 12 -37 -2 -44 -10 -5 -10 -7 0 -12
16 -7 16 -41 -1 -48 -9 -5 -9 -7 1 -12 6 -3 12 -14 12 -24 0 -10 -6 -21 -12
-24 -10 -5 -10 -7 0 -12 16 -7 16 -41 0 -48 -10 -5 -10 -7 0 -12 14 -7 16 -44
2 -44 -19 0 -25 5 -22 18 2 8 -4 12 -15 10 -12 -2 -17 2 -15 14 2 11 -3 18
-13 18 -18 0 -18 -7 -20 168 -1 78 2 142 6 142 5 0 9 -7 9 -15z m440 -245 l0
-170 -170 0 -170 0 0 170 0 170 170 0 170 0 0 -170z m-360 -140 c0 -5 -2 -10
-4 -10 -3 0 -8 5 -11 10 -3 6 -1 10 4 10 6 0 11 -4 11 -10z"/>
<path d="M40 370 c0 -5 5 -10 10 -10 6 0 10 5 10 10 0 6 -4 10 -10 10 -5 0
-10 -4 -10 -10z"/>
<path d="M70 340 c0 -5 5 -10 10 -10 6 0 10 5 10 10 0 6 -4 10 -10 10 -5 0
-10 -4 -10 -10z"/>
<path d="M40 310 c0 -5 5 -10 10 -10 6 0 10 5 10 10 0 6 -4 10 -10 10 -5 0
-10 -4 -10 -10z"/>
<path d="M70 280 c0 -5 5 -10 10 -10 6 0 10 5 10 10 0 6 -4 10 -10 10 -5 0
-10 -4 -10 -10z"/>
<path d="M40 250 c0 -5 5 -10 10 -10 6 0 10 5 10 10 0 6 -4 10 -10 10 -5 0
-10 -4 -10 -10z"/>
<path d="M70 220 c0 -5 5 -10 10 -10 6 0 10 5 10 10 0 6 -4 10 -10 10 -5 0
-10 -4 -10 -10z"/>
<path d="M40 190 c0 -5 5 -10 10 -10 6 0 10 5 10 10 0 6 -4 10 -10 10 -5 0
-10 -4 -10 -10z"/>
<path d="M70 160 c0 -5 5 -10 10 -10 6 0 10 5 10 10 0 6 -4 10 -10 10 -5 0
-10 -4 -10 -10z"/>
</g>
</svg>
