<?xml version="1.0" standalone="no"?>
<!DOCTYPE svg PUBLIC "-//W3C//DTD SVG 20010904//EN"
 "http://www.w3.org/TR/2001/REC-SVG-20010904/DTD/svg10.dtd">
<svg version="1.0" xmlns="http://www.w3.org/2000/svg"
 width="512.000000pt" height="512.000000pt" viewBox="0 0 512.000000 512.000000"
 preserveAspectRatio="xMidYMid meet">

<g transform="translate(0.000000,512.000000) scale(0.100000,-0.100000)"
fill="#000000" stroke="none">
<path d="M2425 5114 c-165 -25 -278 -61 -415 -129 -261 -131 -483 -384 -584
-662 -81 -227 -92 -469 -32 -705 13 -51 21 -96 17 -99 -3 -4 -150 -76 -325
-160 -237 -114 -330 -164 -361 -194 -54 -50 -440 -582 -468 -644 -33 -71 -30
-179 6 -253 38 -77 87 -118 222 -185 l114 -57 3 -480 c3 -480 4 -481 27 -541
18 -43 41 -77 85 -120 60 -59 81 -70 874 -455 448 -217 837 -403 865 -412 73
-24 150 -22 227 5 36 13 425 198 865 412 781 380 801 391 861 450 43 43 68 77
85 120 23 60 24 61 27 541 l3 480 114 57 c135 67 184 108 222 185 36 74 39
182 6 253 -28 62 -414 593 -467 644 -32 30 -126 80 -362 194 -175 85 -322 157
-325 160 -4 4 4 48 17 100 167 655 -242 1320 -906 1472 -83 19 -327 33 -395
23z m400 -193 c96 -27 240 -93 323 -150 200 -135 354 -356 419 -597 23 -88 26
-117 26 -259 0 -141 -3 -172 -26 -257 -115 -430 -463 -729 -906 -778 -246 -27
-516 48 -720 200 -279 208 -436 539 -418 884 25 479 364 873 837 972 102 21
363 12 465 -15z m-1120 -1847 c119 -121 188 -171 322 -238 309 -154 663 -167
987 -37 217 87 418 254 554 460 33 51 62 97 64 102 2 6 140 -57 307 -138 l303
-148 -832 -405 c-457 -223 -837 -406 -844 -408 -6 -1 -120 50 -251 114 -326
158 -636 309 -905 439 -124 61 -294 144 -379 185 l-153 76 123 59 c68 32 205
98 303 146 l179 87 56 -91 c38 -62 91 -126 166 -203z m-102 -536 c455 -221
827 -405 827 -408 0 -3 -85 -122 -190 -264 -197 -271 -220 -295 -288 -296 -23
0 -111 38 -280 120 -136 66 -467 228 -737 359 -417 203 -493 243 -512 271 -31
44 -31 112 0 161 50 82 331 459 341 459 6 0 383 -181 839 -402z m2918 191
c198 -272 199 -274 199 -330 0 -94 32 -75 -780 -471 -512 -249 -745 -357 -769
-358 -69 0 -97 28 -291 295 -102 140 -186 258 -188 263 -1 5 41 29 95 55 54
25 197 94 318 153 969 472 1241 604 1251 604 6 0 80 -95 165 -211z m-3209
-1048 c293 -142 543 -262 555 -265 47 -15 151 -8 200 14 79 35 106 62 253 265
79 107 147 198 151 201 5 3 9 -370 9 -850 0 -471 -4 -856 -8 -856 -5 0 -287
135 -628 301 -340 166 -704 342 -809 393 -202 98 -235 123 -255 194 -10 36
-15 862 -5 862 2 0 244 -116 537 -259z m3038 -153 c0 -262 -4 -427 -11 -451
-22 -82 -24 -82 -877 -497 -442 -214 -807 -390 -813 -390 -5 0 -9 330 -9 856
0 470 4 853 8 850 5 -3 73 -93 151 -201 79 -107 157 -207 175 -220 60 -46 122
-66 197 -66 84 0 52 -13 704 305 253 124 463 225 468 225 4 1 7 -185 7 -411z"/>
<path d="M2064 4556 c-62 -29 -120 -86 -148 -146 -15 -34 -21 -65 -21 -125 0
-105 25 -150 150 -275 l94 -94 -103 -106 c-84 -86 -107 -116 -125 -165 -76
-201 72 -403 290 -398 89 2 139 30 256 145 l103 102 103 -101 c112 -110 141
-129 222 -144 188 -35 364 133 342 324 -10 82 -48 143 -151 247 l-96 94 99
101 c126 128 146 164 146 270 0 64 -5 90 -23 127 -56 113 -161 173 -287 166
-96 -6 -141 -32 -257 -146 l-98 -96 -98 97 c-121 118 -174 147 -277 147 -53 0
-83 -6 -121 -24z m179 -152 c18 -9 89 -73 159 -142 111 -109 131 -125 159
-124 26 1 52 21 163 130 146 143 180 163 247 143 56 -17 89 -61 89 -120 0 -27
-7 -57 -17 -71 -9 -14 -72 -82 -140 -151 -99 -101 -123 -131 -123 -154 0 -23
24 -53 123 -154 68 -69 131 -137 140 -151 10 -14 17 -45 17 -73 0 -42 -5 -54
-33 -82 -39 -39 -72 -50 -124 -40 -30 5 -63 32 -173 141 -180 177 -160 177
-339 0 -143 -140 -167 -155 -236 -142 -21 4 -45 20 -64 42 -25 28 -31 43 -31
82 0 28 7 58 17 72 9 14 72 82 140 151 99 101 123 131 123 154 0 23 -25 54
-129 159 -71 72 -134 141 -140 153 -16 32 -13 105 5 132 23 32 74 61 107 61
15 0 42 -7 60 -16z"/>
</g>
</svg>
