<?xml version="1.0" standalone="no"?>
<svg xmlns:xlink="http://www.w3.org/1999/xlink" id="wave" style="transform:rotate(0deg); transition: 0.3s" viewBox="0 0 1440 130" version="1.1" xmlns="http://www.w3.org/2000/svg"><defs><linearGradient id="sw-gradient-0" x1="0" x2="0" y1="1" y2="0"><stop stop-color="rgba(80.008, 80.008, 80.008, 1)" offset="0%"/><stop stop-color="rgba(7.151, 6.666, 5.594, 1)" offset="100%"/></linearGradient></defs><path style="transform:translate(0, 0px); opacity:1" fill="url(#sw-gradient-0)" d="M0,26L40,23.8C80,22,160,17,240,17.3C320,17,400,22,480,36.8C560,52,640,78,720,86.7C800,95,880,87,960,80.2C1040,74,1120,69,1200,56.3C1280,43,1360,22,1440,15.2C1520,9,1600,17,1680,17.3C1760,17,1840,9,1920,10.8C2000,13,2080,26,2160,26C2240,26,2320,13,2400,23.8C2480,35,2560,69,2640,86.7C2720,104,2800,104,2880,101.8C2960,100,3040,95,3120,78C3200,61,3280,30,3360,30.3C3440,30,3520,61,3600,69.3C3680,78,3760,65,3840,69.3C3920,74,4000,95,4080,97.5C4160,100,4240,82,4320,67.2C4400,52,4480,39,4560,39C4640,39,4720,52,4800,56.3C4880,61,4960,56,5040,45.5C5120,35,5200,17,5280,26C5360,35,5440,69,5520,69.3C5600,69,5680,35,5720,17.3L5760,0L5760,130L5720,130C5680,130,5600,130,5520,130C5440,130,5360,130,5280,130C5200,130,5120,130,5040,130C4960,130,4880,130,4800,130C4720,130,4640,130,4560,130C4480,130,4400,130,4320,130C4240,130,4160,130,4080,130C4000,130,3920,130,3840,130C3760,130,3680,130,3600,130C3520,130,3440,130,3360,130C3280,130,3200,130,3120,130C3040,130,2960,130,2880,130C2800,130,2720,130,2640,130C2560,130,2480,130,2400,130C2320,130,2240,130,2160,130C2080,130,2000,130,1920,130C1840,130,1760,130,1680,130C1600,130,1520,130,1440,130C1360,130,1280,130,1200,130C1120,130,1040,130,960,130C880,130,800,130,720,130C640,130,560,130,480,130C400,130,320,130,240,130C160,130,80,130,40,130L0,130Z"/><defs><linearGradient id="sw-gradient-1" x1="0" x2="0" y1="1" y2="0"><stop stop-color="rgba(0, 0, 0, 1)" offset="0%"/><stop stop-color="rgba(41.302, 35.669, 23.216, 1)" offset="100%"/></linearGradient></defs><path style="transform:translate(0, 50px); opacity:0.9" fill="url(#sw-gradient-1)" d="M0,39L40,49.8C80,61,160,82,240,82.3C320,82,400,61,480,47.7C560,35,640,30,720,32.5C800,35,880,43,960,49.8C1040,56,1120,61,1200,71.5C1280,82,1360,100,1440,91C1520,82,1600,48,1680,47.7C1760,48,1840,82,1920,84.5C2000,87,2080,56,2160,49.8C2240,43,2320,61,2400,58.5C2480,56,2560,35,2640,41.2C2720,48,2800,82,2880,99.7C2960,117,3040,117,3120,108.3C3200,100,3280,82,3360,69.3C3440,56,3520,48,3600,47.7C3680,48,3760,56,3840,69.3C3920,82,4000,100,4080,95.3C4160,91,4240,65,4320,54.2C4400,43,4480,48,4560,60.7C4640,74,4720,95,4800,99.7C4880,104,4960,91,5040,84.5C5120,78,5200,78,5280,78C5360,78,5440,78,5520,78C5600,78,5680,78,5720,78L5760,78L5760,130L5720,130C5680,130,5600,130,5520,130C5440,130,5360,130,5280,130C5200,130,5120,130,5040,130C4960,130,4880,130,4800,130C4720,130,4640,130,4560,130C4480,130,4400,130,4320,130C4240,130,4160,130,4080,130C4000,130,3920,130,3840,130C3760,130,3680,130,3600,130C3520,130,3440,130,3360,130C3280,130,3200,130,3120,130C3040,130,2960,130,2880,130C2800,130,2720,130,2640,130C2560,130,2480,130,2400,130C2320,130,2240,130,2160,130C2080,130,2000,130,1920,130C1840,130,1760,130,1680,130C1600,130,1520,130,1440,130C1360,130,1280,130,1200,130C1120,130,1040,130,960,130C880,130,800,130,720,130C640,130,560,130,480,130C400,130,320,130,240,130C160,130,80,130,40,130L0,130Z"/><defs><linearGradient id="sw-gradient-2" x1="0" x2="0" y1="1" y2="0"><stop stop-color="rgba(180.186, 162.043, 156.217, 1)" offset="0%"/><stop stop-color="rgba(41.302, 38.647, 32.777, 1)" offset="100%"/></linearGradient></defs><path style="transform:translate(0, 100px); opacity:0.8" fill="url(#sw-gradient-2)" d="M0,52L40,54.2C80,56,160,61,240,71.5C320,82,400,100,480,93.2C560,87,640,56,720,47.7C800,39,880,52,960,54.2C1040,56,1120,48,1200,41.2C1280,35,1360,30,1440,30.3C1520,30,1600,35,1680,47.7C1760,61,1840,82,1920,95.3C2000,108,2080,113,2160,104C2240,95,2320,74,2400,67.2C2480,61,2560,69,2640,71.5C2720,74,2800,69,2880,58.5C2960,48,3040,30,3120,19.5C3200,9,3280,4,3360,13C3440,22,3520,43,3600,49.8C3680,56,3760,48,3840,54.2C3920,61,4000,82,4080,78C4160,74,4240,43,4320,32.5C4400,22,4480,30,4560,39C4640,48,4720,56,4800,65C4880,74,4960,82,5040,78C5120,74,5200,56,5280,58.5C5360,61,5440,82,5520,91C5600,100,5680,95,5720,93.2L5760,91L5760,130L5720,130C5680,130,5600,130,5520,130C5440,130,5360,130,5280,130C5200,130,5120,130,5040,130C4960,130,4880,130,4800,130C4720,130,4640,130,4560,130C4480,130,4400,130,4320,130C4240,130,4160,130,4080,130C4000,130,3920,130,3840,130C3760,130,3680,130,3600,130C3520,130,3440,130,3360,130C3280,130,3200,130,3120,130C3040,130,2960,130,2880,130C2800,130,2720,130,2640,130C2560,130,2480,130,2400,130C2320,130,2240,130,2160,130C2080,130,2000,130,1920,130C1840,130,1760,130,1680,130C1600,130,1520,130,1440,130C1360,130,1280,130,1200,130C1120,130,1040,130,960,130C880,130,800,130,720,130C640,130,560,130,480,130C400,130,320,130,240,130C160,130,80,130,40,130L0,130Z"/></svg>